HIERARCHY
ROOT Hips
{
    OFFSET 0.000000 0.000000 0.000000
    CHANNELS 6 Xposition Yposition Zposition Zrotation Xrotation Yrotation
    JOINT Spine
    {
        OFFSET -0.000000 7.871866 0.000000
        CHANNELS 3 Zrotation Xrotation Yrotation
        JOINT Spine1
        {
            OFFSET -0.000000 20.477478 0.000000
            CHANNELS 3 Zrotation Xrotation Yrotation
            JOINT Neck
            {
                OFFSET -0.000000 20.393381 1.853944
                CHANNELS 3 Zrotation Xrotation Yrotation
                JOINT Head
                {
                    OFFSET -0.000000 13.439772 -1.919967
                    CHANNELS 3 Zrotation Xrotation Yrotation
                    End Site
                    {
                        OFFSET -0.000000 23.999592 0.000000
                    }
                }
            }
            JOINT LeftShoulder
            {
                OFFSET 3.872530 18.410604 -0.225466
                CHANNELS 3 Zrotation Xrotation Yrotation
                JOINT LeftArm
                {
                    OFFSET 11.402711 0.000000 0.000000
                    CHANNELS 3 Zrotation Xrotation Yrotation
                    JOINT LeftForeArm
                    {
                        OFFSET 30.885973 0.000000 0.000000
                        CHANNELS 3 Zrotation Xrotation Yrotation
                        JOINT LeftHand
                        {
                            OFFSET 25.505432 0.000000 0.000000
                            CHANNELS 3 Zrotation Xrotation Yrotation
                            End Site
                            {
                                OFFSET 14.399755 0.000000 0.000000
                            }
                        }
                    }
                }
            }
            JOINT RightShoulder
            {
                OFFSET -3.749425 18.410604 -0.225466
                CHANNELS 3 Zrotation Xrotation Yrotation
                JOINT RightArm
                {
                    OFFSET -11.402711 0.000000 0.000000
                    CHANNELS 3 Zrotation Xrotation Yrotation
                    JOINT RightForeArm
                    {
                        OFFSET -30.885973 0.000000 0.000000
                        CHANNELS 3 Zrotation Xrotation Yrotation
                        JOINT RightHand
                        {
                            OFFSET -25.505432 0.000000 0.000000
                            CHANNELS 3 Zrotation Xrotation Yrotation
                            End Site
                            {
                                OFFSET -14.399755 0.000000 0.000000
                            }
                        }
                    }
                }
            }
        }
    }
    JOINT LeftUpLeg
    {
        OFFSET 9.599837 0.000000 0.000000
        CHANNELS 3 Zrotation Xrotation Yrotation
        JOINT LeftLeg
        {
            OFFSET -0.000000 -39.304852 0.000000
            CHANNELS 3 Zrotation Xrotation Yrotation
            JOINT LeftFoot
            {
                OFFSET -0.000000 -46.901295 0.000000
                CHANNELS 3 Zrotation Xrotation Yrotation
                JOINT LeftToeBase
                {
                    OFFSET -0.000000 -6.239893 14.399755
                    CHANNELS 3 Zrotation Xrotation Yrotation
                    End Site
                    {
                        OFFSET -0.000000 0.000000 3.839935
                    }
                }
            }
        }
    }
    JOINT RightUpLeg
    {
        OFFSET -9.599837 0.000000 0.000000
        CHANNELS 3 Zrotation Xrotation Yrotation
        JOINT RightLeg
        {
            OFFSET -0.000000 -39.304852 0.000000
            CHANNELS 3 Zrotation Xrotation Yrotation
            JOINT RightFoot
            {
                OFFSET -0.000000 -46.901295 0.000000
                CHANNELS 3 Zrotation Xrotation Yrotation
                JOINT RightToeBase
                {
                    OFFSET -0.000000 -6.239893 14.399755
                    CHANNELS 3 Zrotation Xrotation Yrotation
                    End Site
                    {
                        OFFSET -0.000000 0.000000 3.839935
                    }
                }
            }
        }
    }
}
MOTION
Frames:    4
Frame Time:    0.008333
72.717598    89.740456    -57.851578    -2.596781    0.194684    22.955812    -3.178911    -4.164367    0.074439    0.066652    2.562159    0.188886    3.578206    27.843609    -5.898458    6.518316    -7.341029    -4.396704    8.180035    4.758913    -14.957433    -55.305954    51.848778    -27.173790    -0.942163    -5.189528    -13.171907    7.976805    -5.250710    0.675565    0.778810    8.369819    -3.509934    47.168850    66.871117    30.553350    -5.715112    -7.930888    18.357889    4.508551    -7.108635    -2.420757    -1.312621    -11.003613    -7.226733    -0.407047    15.502727    -4.443949    -5.116842    -5.471712    5.610280    0.000000    0.000000    0.000000    -5.861685    5.323489    6.392664    2.007608    22.094538    1.420917    11.227438    10.289569    20.948200    0.000000    0.000000    0.000000    
72.895996    89.730888    -57.759167    -2.608475    0.123059    22.846333    -3.237195    -4.080960    0.058826    0.086471    2.598708    0.172320    3.653335    27.854403    -5.884445    6.436439    -7.328018    -4.390646    8.157112    4.758918    -14.984359    -55.154881    51.785789    -27.287048    -0.939912    -5.242305    -13.288182    8.028515    -5.300145    0.728955    0.787295    8.344982    -3.465717    47.246597    66.664063    30.443907    -5.603591    -7.911560    18.385822    4.441062    -7.104374    -2.420610    -1.301073    -10.869385    -7.144600    -0.463744    15.575603    -4.395322    -5.170156    -5.685101    5.513306    0.000000    0.000000    0.000000    -5.906078    4.982856    6.103371    1.974404    22.851042    1.204329    11.757310    10.658319    21.256760    0.000000    0.000000    0.000000    
73.540092    90.224281    -57.378418    0.011651    -1.602141    22.850605    -5.009237    -1.805838    0.116869    0.033290    2.989915    0.195029    3.709293    27.938080    -5.893739    6.421195    -7.412797    -4.389310    8.135614    4.803615    -15.011924    -54.901199    51.793446    -27.486401    -0.899307    -5.309454    -13.401016    8.088236    -5.357935    0.802252    0.804555    8.343612    -3.473085    47.229977    66.419647    30.433475    -5.448682    -7.866642    18.465025    4.349644    -7.083125    -2.542131    -3.585036    -7.382717    -7.157284    0.095792    14.682548    -4.160269    -5.914894    -2.849205    5.757004    0.000000    0.000000    0.000000    -8.091773    7.755798    6.035945    2.133368    22.897774    1.119639    11.789386    12.848494    21.069904    0.000000    0.000000    0.000000    
73.239464    89.714859    -57.585949    -2.630424    -0.036565    22.672745    -3.352238    -3.868436    0.012300    0.119804    2.642488    0.123109    3.738239    27.841156    -5.829464    6.370708    -7.234538    -4.342736    8.175582    4.701147    -15.051716    -54.956699    51.801418    -27.451448    -0.886159    -5.310506    -13.502994    8.132571    -5.361608    0.750648    0.804515    8.368506    -3.451498    47.247421    66.328064    30.432930    -5.509209    -7.840275    18.445818    4.290436    -7.047459    -2.566089    -1.291230    -10.591000    -6.992442    -0.542382    15.705086    -4.368495    -5.274298    -6.059558    5.367884    0.000000    0.000000    0.000000    -6.008194    4.298559    5.536015    1.961461    24.416882    1.432746    11.698432    11.594898    21.289848    0.000000    0.000000    0.000000    
